<?xml version="1.0" encoding="UTF-8" standalone="no" ?>
<!DOCTYPE svg PUBLIC "-//W3C//DTD SVG 1.1//EN" "http://www.w3.org/Graphics/SVG/1.1/DTD/svg11.dtd">
<svg xmlns="http://www.w3.org/2000/svg" xmlns:xlink="http://www.w3.org/1999/xlink" version="1.1" width="100" height="100" viewBox="0 0 100 100" xml:space="preserve">
<desc>Created with Fabric.js 4.6.0</desc>
<defs>
</defs>
<g transform="matrix(0.95 0 0 0.95 51.93 48.74)" id="fH4yhL5B7LffOKF9lmoVS"  >
<path style="stroke: rgb(0,0,0); stroke-width: 1; stroke-dasharray: none; stroke-linecap: round; stroke-dashoffset: 0; stroke-linejoin: round; stroke-miterlimit: 4; fill: rgb(255,255,255); fill-opacity: 0; fill-rule: nonzero; opacity: 1;" vector-effect="non-scaling-stroke"  transform=" translate(-305.71, -452.36)" d="M 277.1868 407.36314 C 276.53646500181725 407.344778031567 275.90768303664447 407.65754802761086 275.4424268297574 408.2308296281621 C 274.97717062287023 408.8041112287133 274.7146718038574 409.58956381827903 274.7142 410.40984 L 274.7142 435.13804 C 273.4005319696131 438.07240583651395 272.7218811723957 441.20254690851993 272.7142 444.36264 C 272.724915700297 448.00054093387234 273.6247539414338 451.5925223711283 275.3509 454.88784 C 274.2973 455.20704 273.22740000000005 455.63313999999997 272.23170000000005 456.08894 C 269.74490000000003 457.22744 267.71430000000004 458.51664 267.71430000000004 458.51664 L 268.24750000000006 459.36044 C 268.24750000000006 459.36044 270.23280000000005 458.10454 272.6478000000001 456.99914 C 273.6733000000001 456.52974 274.7716000000001 456.09854 275.81770000000006 455.79404 C 276.1933602591359 456.4424501057492 276.60065061312366 457.07585717383336 277.0384000000001 457.69244 C 275.76920000000007 458.01554 274.4449000000001 458.53564 273.2317000000001 459.09094 C 270.7449000000001 460.22934 268.7143000000001 461.51664 268.7143000000001 461.51664 L 269.2475000000001 462.36044 C 269.2475000000001 462.36044 271.2328000000001 461.10654 273.64780000000013 460.00104 C 274.85540000000015 459.44824 276.1687000000001 458.93534 277.37240000000014 458.63774 C 277.4891000000001 458.60874 277.59790000000015 458.59174 277.71220000000017 458.56774 C 278.21267912392887 459.21556648583993 278.74714100220564 459.84193071256664 279.3138000000002 460.44474 C 278.9276000000002 460.49774 278.5360000000002 460.56804 278.13410000000016 460.66734 C 276.83610000000016 460.98814000000004 275.47520000000014 461.52204 274.23170000000016 462.09124 C 271.74470000000014 463.22954000000004 269.71430000000015 464.51684 269.71430000000015 464.51684 L 270.2475000000002 465.36064 C 270.2475000000002 465.36064 272.23260000000016 464.10663999999997 274.6478000000002 463.00124 C 275.8554000000002 462.44854 277.1687000000002 461.93564 278.3724000000002 461.63804 C 279.0466000000002 461.47134 279.6763000000002 461.38723999999996 280.2356000000002 461.38024 C 280.7337474603022 461.85319104440276 281.2523406459773 462.30863635277933 281.7902000000002 462.74554 C 280.4318704381136 465.43440833965906 279.72250683484117 468.37867218504147 279.7141000000002 471.36254 C 279.7139301438967 477.96392585286725 283.13421562507824 484.14015954229245 288.8546000000002 487.86814000000004 C 287.091949788123 489.44525113257424 286.3568899798857 491.47365251154554 286.8820000000002 493.31154000000004 C 287.31524528030934 494.81672402287455 288.5560988973192 496.0547928603398 290.3315014225088 496.753299896136 C 292.1069039476983 497.4518069319322 294.2713728431352 497.5535141172849 296.34860000000015 497.03604 C 298.040739419969 496.6118192224931 299.5716391221579 495.80182791947175 300.7119000000001 494.72744 C 301.85266385452525 495.80206044606297 303.38424101982014 496.61207603420524 305.0770000000001 497.03604 C 307.15387999461757 497.55355203020497 309.3180541496371 497.4520837515034 311.09341250277583 496.75395779363055 C 312.86877085591465 496.0558318357578 314.1098797435507 494.8182372251115 314.5437000000001 493.31344 C 315.07210035263734 491.4688293437163 314.33062764034696 489.432259413857 312.5555000000001 487.85254000000003 C 314.7043799088448 486.4607172605175 316.5633319965629 484.7011145383513 318.0379000000001 482.66314000000006 C 319.7530000000001 483.46574000000004 321.42500000000007 484.81414000000007 323.1276000000001 486.17284000000006 C 327.3455000000001 489.53954000000004 332.9505000000001 490.46494000000007 337.24270000000007 487.8564400000001 C 341.53510000000006 485.24824000000007 343.7678000000001 479.9395400000001 343.71330000000006 473.38394000000005 C 343.71927512204104 472.302879702029 343.2875007156296 471.26542712279036 342.516325171791 470.50789036766946 C 341.74514962795234 469.75035361254857 340.7002389396814 469.3372373246875 339.61960000000005 469.36264000000006 C 337.4119904970381 469.4137432787139 335.66345464412683 471.24441940324704 335.71340000000004 473.45234000000005 C 335.7524 478.2047400000001 334.22270000000003 480.33124000000004 333.0885 481.02064000000007 C 331.95390000000003 481.71004000000005 330.4669 481.79584000000006 328.1178 479.9209400000001 C 326.55809999999997 478.6760400000001 324.3382 476.7180400000001 321.2897 475.3468400000001 C 321.5706141352196 474.0355922642358 321.71262590710273 472.7008022130115 321.7136 471.3625400000001 C 321.7063927253053 468.3804118997084 320.99903104992114 465.437564560554 319.6433 462.7494400000001 C 320.1732977720011 462.3108531653568 320.68408024448695 461.8541111582202 321.1745 461.38024000000013 C 321.7375 461.3902400000001 322.37260000000003 461.4702400000001 323.0534 461.6380400000001 C 324.257 461.9356400000001 325.57050000000004 462.4485400000001 326.7779 463.0012400000001 C 329.1931 464.1066400000001 331.1783 465.3606400000001 331.1783 465.3606400000001 L 331.71349999999995 464.5168400000001 C 331.71349999999995 464.5168400000001 329.68089999999995 463.2295400000001 327.1938999999999 462.09124000000014 C 325.95059999999995 461.5220400000001 324.5915999999999 460.98814000000016 323.2935999999999 460.66734000000014 C 322.9026999999999 460.57034000000016 322.5199999999999 460.50194000000016 322.1432999999999 460.4486400000001 C 322.70853943953074 459.84640391736 323.2416646078732 459.2207093188109 323.7408999999999 458.5736400000001 C 323.8460999999999 458.59664000000015 323.9460999999999 458.61164000000014 324.0533999999999 458.63764000000015 C 325.2569999999999 458.93524000000014 326.5702999999999 459.44814000000014 327.7778999999999 460.0009400000001 C 330.1930999999999 461.10644000000013 332.17829999999987 462.3603400000001 332.17829999999987 462.3603400000001 L 332.71349999999984 461.51654000000013 C 332.71349999999984 461.51654000000013 330.68089999999984 460.2292400000001 328.1938999999998 459.0908400000001 C 326.9732999999998 458.53214000000014 325.6420999999998 458.0091400000001 324.36589999999984 457.68654000000015 C 324.80433105484514 457.06995731674147 325.2122890642482 456.43651634115326 325.5885999999998 455.78804000000014 C 326.64039999999983 456.09264000000013 327.74589999999984 456.52674000000013 328.7778999999998 456.99904000000015 C 331.19309999999984 458.1044400000001 333.1782999999998 459.3603400000002 333.1782999999998 459.3603400000002 L 333.7134999999998 458.5165400000002 C 333.7134999999998 458.5165400000002 331.6808999999998 457.2273400000002 329.19389999999976 456.0888400000002 C 328.19759999999974 455.6327400000002 327.12849999999975 455.2069400000002 326.07489999999973 454.8877400000002 C 327.80170127941426 451.5925547725855 328.70218941594834 448.00056745558084 328.7134999999997 444.3625400000002 C 328.7096885757452 441.1932621294668 328.03096805665325 438.0535349441737 326.7134999999997 435.1106400000002 L 326.7134999999997 410.4097400000002 C 326.7130396010358 409.5890386643012 326.4502808197012 408.8032101485601 325.98460886079016 408.2298568419469 C 325.5189369018791 407.6565035353338 324.8896604128748 407.34402376328273 324.23899999999975 407.36304000000024 C 323.83394859423913 407.3745805289195 323.4376870280055 407.514255510006 323.08659999999975 407.76924000000025 L 306.43059999999974 419.89604000000026 C 304.5505651109564 419.5436800568835 302.6349072727036 419.36500551399047 300.71389999999974 419.36284000000023 C 298.80000751212384 419.37218404010866 296.8922314938432 419.5567156474553 295.02049999999974 419.91354000000024 L 278.3391999999997 407.76924000000025 C 277.988112971994 407.514255510006 277.59185140576034 407.3745805289195 277.1867999999997 407.36304000000024 z M 277.7142 413.36104 L 283.39570000000003 424.72214 C 281.21260328957993 426.2579419528752 279.29777726196176 428.07540051778483 277.7142 430.11474000000004 L 277.7142 413.36104000000006 z M 323.7136 413.36104 L 323.7136 430.15184 C 322.1284040210519 428.1063445405987 320.21017528204754 426.2835334664534 318.0223 424.74363999999997 L 323.7136 413.36103999999995 z M 286.31759999999997 441.36454 L 286.31759999999997 441.36454 C 287.3078 441.34553999999997 288.3194 441.45653999999996 289.31949999999995 441.70243999999997 C 293.31399999999996 442.69293999999996 296.34069999999997 445.68463999999994 296.70609999999994 449.27853999999996 C 296.7289316711658 449.49890377742497 296.6667651373464 449.7196700873982 296.5322999999999 449.89574 C 294.2945999999999 452.81784 290.1050999999999 454.00714 286.1046999999999 453.02263999999997 C 282.1099999999999 452.03243999999995 279.0816999999999 449.04063999999994 278.7161999999999 445.44653999999997 C 278.6933944548497 445.2262094875627 278.7555596214583 445.00548380105994 278.88999999999993 444.82944 C 280.56839999999994 442.63743999999997 283.34489999999994 441.42053999999996 286.31569999999994 441.36454 z M 315.10619999999994 441.36454 L 315.10619999999994 441.36454 C 318.07699999999994 441.42053999999996 320.85339999999997 442.63734 322.53189999999995 444.82944 C 322.6663403785416 445.00548380105994 322.7285055451502 445.2262094875627 322.7057 445.44653999999997 C 322.3402 449.04064 319.3117 452.03243999999995 315.3171 453.02263999999997 C 311.3166 454.00714 307.1273 452.81784 304.8895 449.89574 C 304.75503486265353 449.7196700873982 304.6928683288341 449.49890377742497 304.71569999999997 449.27853999999996 C 305.0811 445.68463999999994 308.1079 442.69293999999996 312.10229999999996 441.70243999999997 C 313.10239999999993 441.45653999999996 314.11389999999994 441.34553999999997 315.10419999999993 441.36454 z M 290.21199999999993 443.36264 C 289.5489728739355 443.3625716601616 288.91308260503985 443.6786132595649 288.4442345494393 444.2412309262856 C 287.9753864938387 444.80384859300625 287.7119913559883 445.5669494816983 287.71199999999993 446.36264 C 287.7120134568876 447.1583131920953 287.97541835127447 447.92138838951684 288.4442640111986 448.48398442759935 C 288.9131096711227 449.04658046568187 289.54898731130874 449.36260833844653 290.21199999999993 449.36254 C 290.87501268869113 449.36260833844653 291.51089032887717 449.04658046568187 291.9797359888013 448.48398442759935 C 292.4485816487254 447.92138838951684 292.7119865431123 447.1583131920953 292.71199999999993 446.36264 C 292.7120086440116 445.5669494816983 292.44861350616117 444.80384859300625 291.9797654505606 444.2412309262856 C 291.51091739496 443.6786132595649 290.87502712606437 443.3625716601616 290.21199999999993 443.36264 z M 311.2136999999999 443.36264 C 310.5506901994997 443.3626034914701 309.91482562207574 443.6786591433086 309.44599919549535 444.2412733597737 C 308.977172768915 444.8038875762388 308.71379135796155 445.56697027598716 308.7137999999999 446.36264 C 308.71381345828325 447.15829239784085 308.9772046255848 447.92134940677954 309.44602865666536 448.48394199481845 C 309.91485268774585 449.04653458285736 310.5507046368442 449.36257650783125 311.2136999999999 449.36254 C 312.5935762300393 449.36135733566095 313.7116723400465 448.0186125316534 313.7116999999999 446.36264 C 313.7117183369645 444.7066284216645 312.5936087664068 443.3638226924119 311.2136999999999 443.36264 z M 300.7138999999999 455.36044 C 302.37072425831934 455.36046264345646 303.7138216221868 456.2558907336378 303.71379999999994 457.36044 C 303.7138216221868 458.4649892663622 302.37072425831934 459.3604173565435 300.7138999999999 459.36044 C 299.91824728756615 459.360446807382 299.15517951751355 459.1497352988626 298.59256814998616 458.77466105384434 C 298.0299567824588 458.3995868088261 297.713889616531 457.8908750266919 297.7138999999999 457.36044 C 297.713889616531 456.83000497330806 298.0299567824588 456.3212931911739 298.59256814998616 455.9462189461556 C 299.15517951751355 455.5711447011374 299.91824728756615 455.36043319261796 300.7138999999999 455.36044 z" stroke-linecap="round" />
</g>
</svg>