<svg width="100" height="100" xmlns="http://www.w3.org/2000/svg">

 <g>
  <title>Layer 1</title>
  <g>
   <desc stroke="#fff" fill="#000">Created with Fabric.js 4.6.0</desc>

   <g id="svg_1" transform="matrix(0.95 0 0 0.95 51.93 48.74)">
    <path fill-rule=" nonzero" fill-opacity="0" fill="#000" stroke-miterlimit="4" stroke-linejoin=" round" stroke-dashoffset="0" stroke="#fff" stroke-linecap=" round" d="m276.30883,408.42405c-0.65033,-0.01836 -1.27912,0.29441 -1.74437,0.86769c-0.46526,0.57328 -0.72776,1.35873 -0.72823,2.17901l0,24.7282c-1.31367,2.93437 -1.99232,6.06451 -2,9.2246c0.01072,3.6379 0.91055,7.22988 2.6367,10.5252c-1.0536,0.3192 -2.1235,0.7453 -3.1192,1.2011c-2.4868,1.1385 -4.5174,2.4277 -4.5174,2.4277l0.5332,0.8438c0,0 1.9853,-1.2559 4.4003,-2.3613c1.0255,-0.4694 2.1238,-0.9006 3.1699,-1.2051c0.37566,0.64841 0.78295,1.28182 1.2207,1.8984c-1.2692,0.3231 -2.5935,0.8432 -3.8067,1.3985c-2.4868,1.1384 -4.5174,2.4257 -4.5174,2.4257l0.5332,0.8438c0,0 1.9853,-1.2539 4.4003,-2.3594c1.2076,-0.5528 2.5209,-1.0657 3.7246,-1.3633c0.1167,-0.029 0.2255,-0.046 0.3398,-0.07c0.50048,0.64783 1.03494,1.27419 1.6016,1.877c-0.3862,0.053 -0.7778,0.1233 -1.1797,0.2226c-1.298,0.3208 -2.6589,0.8547 -3.9024,1.4239c-2.487,1.1383 -4.5174,2.4256 -4.5174,2.4256l0.5332,0.8438c0,0 1.9851,-1.254 4.4003,-2.3594c1.2076,-0.5527 2.5209,-1.0656 3.7246,-1.3632c0.6742,-0.1667 1.3039,-0.2508 1.8632,-0.2578c0.49815,0.47295 1.01674,0.9284 1.5546,1.3653c-1.35833,2.68887 -2.06769,5.63313 -2.0761,8.617c-0.00017,6.60139 3.42012,12.77762 9.1405,16.5056c-1.76265,1.57711 -2.49771,3.60551 -1.9726,5.4434c0.43325,1.50518 1.6741,2.74325 3.4495,3.44176c1.7754,0.69851 3.93987,0.80021 6.0171,0.28274c1.69214,-0.42422 3.22304,-1.23421 4.3633,-2.3086c1.14076,1.07462 2.67234,1.88464 4.3651,2.3086c2.07688,0.51751 4.24105,0.41604 6.01641,-0.28208c1.77536,-0.69813 3.01647,-1.93572 3.45029,-3.44052c0.5284,-1.84461 -0.21307,-3.88118 -1.9882,-5.4609c2.14888,-1.39182 4.00783,-3.15143 5.4824,-5.1894c1.7151,0.8026 3.3871,2.151 5.0897,3.5097c4.2179,3.3667 9.8229,4.2921 14.1151,1.6836c4.2924,-2.6082 6.5251,-7.9169 6.4706,-14.4725c0.00598,-1.08106 -0.4258,-2.11851 -1.19697,-2.87605c-0.77118,-0.75754 -1.81609,-1.17065 -2.89673,-1.14525c-2.20761,0.0511 -3.95615,1.88178 -3.9062,4.0897c0.039,4.7524 -1.4907,6.8789 -2.6249,7.5683c-1.1346,0.6894 -2.6216,0.7752 -4.9707,-1.0997c-1.5597,-1.2449 -3.7796,-3.2029 -6.8281,-4.5741c0.28091,-1.31125 0.42293,-2.64604 0.4239,-3.9843c-0.00721,-2.98213 -0.71457,-5.92498 -2.0703,-8.6131c0.53,-0.43859 1.04078,-0.89533 1.5312,-1.3692c0.563,0.01 1.1981,0.09 1.8789,0.2578c1.2036,0.2976 2.5171,0.8105 3.7245,1.3632c2.4152,1.1054 4.4004,2.3594 4.4004,2.3594l0.5352,-0.8438c0,0 -2.0326,-1.2873 -4.5196,-2.4256c-1.2433,-0.5692 -2.6023,-1.1031 -3.9003,-1.4239c-0.3909,-0.097 -0.7736,-0.1654 -1.1503,-0.2187c0.56524,-0.60224 1.09836,-1.22793 1.5976,-1.875c0.1052,0.023 0.2052,0.038 0.3125,0.064c1.2036,0.2976 2.5169,0.8105 3.7245,1.3633c2.4152,1.1055 4.4004,2.3594 4.4004,2.3594l0.5352,-0.8438c0,0 -2.0326,-1.2873 -4.5196,-2.4257c-1.2206,-0.5587 -2.5518,-1.0817 -3.828,-1.4043c0.43843,-0.61658 0.84639,-1.25002 1.2227,-1.8985c1.0518,0.3046 2.1573,0.7387 3.1893,1.211c2.4152,1.1054 4.4004,2.3613 4.4004,2.3613l0.5352,-0.8438c0,0 -2.0326,-1.2892 -4.5196,-2.4277c-0.9963,-0.4561 -2.0654,-0.8819 -3.119,-1.2011c1.7268,-3.29519 2.62729,-6.88717 2.6386,-10.5252c-0.00381,-3.16928 -0.68253,-6.30901 -2,-9.2519l0,-24.7009c-0.00046,-0.8207 -0.26322,-1.60653 -0.72889,-2.17988c-0.46567,-0.57336 -1.09495,-0.88584 -1.74561,-0.86682c-0.40505,0.01154 -0.80131,0.15122 -1.1524,0.4062l-16.656,12.1268c-1.88003,-0.35236 -3.79569,-0.53103 -5.7167,-0.5332c-1.91389,0.00934 -3.82167,0.19388 -5.6934,0.5507l-16.6813,-12.1443c-0.35109,-0.25498 -0.74735,-0.39466 -1.1524,-0.4062l0,0.0001zm0.5274,5.9979l5.6815,11.3611c-2.1831,1.5358 -4.09792,3.35326 -5.6815,5.3926l0,-16.7537zm45.9994,0l0,16.7908c-1.5852,-2.0455 -3.50342,-3.86831 -5.6913,-5.4082l5.6913,-11.3826zm-37.396,28.0035l0,0c0.9902,-0.019 2.0018,0.092 3.0019,0.3379c3.9945,0.9905 7.0212,3.9822 7.3866,7.5761c0.02283,0.22036 -0.03933,0.44113 -0.1738,0.6172c-2.2377,2.9221 -6.4272,4.1114 -10.4276,3.1269c-3.9947,-0.9902 -7.023,-3.982 -7.3885,-7.5761c-0.02281,-0.22033 0.03936,-0.44106 0.1738,-0.6171c1.6784,-2.192 4.4549,-3.4089 7.4257,-3.4649l0.0019,0zm28.7886,0l0,0c2.9708,0.056 5.7472,1.2728 7.4257,3.4649c0.13444,0.17604 0.19661,0.39677 0.1738,0.6171c-0.3655,3.5941 -3.394,6.5859 -7.3886,7.5761c-4.0005,0.9845 -8.1898,-0.2048 -10.4276,-3.1269c-0.13447,-0.17607 -0.19663,-0.39684 -0.1738,-0.6172c0.3654,-3.5939 3.3922,-6.5856 7.3866,-7.5761c1.0001,-0.2459 2.0116,-0.3569 3.0019,-0.3379l0.002,0zm-24.8942,1.9981c-0.66303,-0.00007 -1.29892,0.31597 -1.76777,0.87859c-0.46884,0.56262 -0.73224,1.32572 -0.73223,2.12141c0.00001,0.79567 0.26342,1.55875 0.73226,2.12134c0.46885,0.5626 1.10473,0.87863 1.76774,0.87856c0.66301,0.00007 1.29889,-0.31596 1.76774,-0.87856c0.46884,-0.56259 0.73225,-1.32567 0.73226,-2.12134c0.00001,-0.79569 -0.26339,-1.55879 -0.73223,-2.12141c-0.46885,-0.56262 -1.10474,-0.87866 -1.76777,-0.87859zm21.0017,0c-0.66301,-0.00004 -1.29887,0.31602 -1.7677,0.87863c-0.46883,0.56262 -0.73221,1.3257 -0.7322,2.12137c0.00001,0.79565 0.2634,1.55871 0.73223,2.1213c0.46882,0.56259 1.10467,0.87864 1.76767,0.8786c1.37988,-0.00118 2.49797,-1.34393 2.498,-2.9999c0.00002,-1.65601 -1.11809,-2.99882 -2.498,-3zm-10.4998,11.9978c1.65682,0.00002 2.99992,0.89545 2.9999,2c0.00002,1.10455 -1.34308,1.99998 -2.9999,2c-0.79565,0.00001 -1.55872,-0.2107 -2.12133,-0.58578c-0.56261,-0.37507 -0.87868,-0.88378 -0.87867,-1.41422c-0.00001,-0.53044 0.31606,-1.03915 0.87867,-1.41422c0.56261,-0.37508 1.32568,-0.58579 2.12133,-0.58578z" transform="translate(-305.71 -452.36)" vector-effect="non-scaling-stroke"/>
   </g>
  </g>
 </g>
</svg>